<?xml version="1.0" encoding="UTF-8" standalone="no"?>
<!-- Created with Inkscape (http://www.inkscape.org/) -->

<svg
   xmlns:dc="http://purl.org/dc/elements/1.1/"
   xmlns:cc="http://creativecommons.org/ns#"
   xmlns:rdf="http://www.w3.org/1999/02/22-rdf-syntax-ns#"
   xmlns:svg="http://www.w3.org/2000/svg"
   xmlns="http://www.w3.org/2000/svg"
   xmlns:sodipodi="http://sodipodi.sourceforge.net/DTD/sodipodi-0.dtd"
   xmlns:inkscape="http://www.inkscape.org/namespaces/inkscape"
   width="48px"
   height="48px"
   id="svg2984"
   version="1.1"
   inkscape:version="0.48.5 r10040"
   sodipodi:docname="Nový dokument 2">
  <defs
     id="defs2986" />
  <sodipodi:namedview
     id="base"
     pagecolor="#ffffff"
     bordercolor="#666666"
     borderopacity="1.0"
     inkscape:pageopacity="0.0"
     inkscape:pageshadow="2"
     inkscape:zoom="7"
     inkscape:cx="-2.3571429"
     inkscape:cy="24"
     inkscape:current-layer="layer1"
     showgrid="true"
     inkscape:grid-bbox="true"
     inkscape:document-units="px"
     inkscape:window-width="1280"
     inkscape:window-height="774"
     inkscape:window-x="0"
     inkscape:window-y="-2"
     inkscape:window-maximized="1" />
  <metadata
     id="metadata2989">
    <rdf:RDF>
      <cc:Work
         rdf:about="">
        <dc:format>image/svg+xml</dc:format>
        <dc:type
           rdf:resource="http://purl.org/dc/dcmitype/StillImage" />
        <dc:title></dc:title>
      </cc:Work>
    </rdf:RDF>
  </metadata>
  <g
     id="layer1"
     inkscape:label="Layer 1"
     inkscape:groupmode="layer">
    <g
       id="g3017"
       transform="translate(0.14285714,0.57142857)">
      <g
         transform="translate(1.7142857,-0.57142857)"
         id="g3004">
        <path
           style="fill:none;stroke:#000000;stroke-width:1px;stroke-linecap:butt;stroke-linejoin:miter;stroke-opacity:1"
           d="M 16.428571,2.5714286 1,24"
           id="path2996"
           inkscape:connector-curvature="0" />
        <path
           inkscape:connector-curvature="0"
           id="path2998"
           d="M 22.428571,2.5714286 7,24"
           style="fill:none;stroke:#000000;stroke-width:1px;stroke-linecap:butt;stroke-linejoin:miter;stroke-opacity:1" />
        <path
           style="fill:none;stroke:#000000;stroke-width:1px;stroke-linecap:butt;stroke-linejoin:miter;stroke-opacity:1"
           d="m 16,2.8571429 6,0"
           id="path3002"
           inkscape:connector-curvature="0" />
      </g>
      <g
         id="g3009"
         transform="matrix(1,0,0,-1,1.5714286,47)">
        <path
           inkscape:connector-curvature="0"
           id="path3011"
           d="M 16.428571,2.5714286 1,24"
           style="fill:none;stroke:#000000;stroke-width:1px;stroke-linecap:butt;stroke-linejoin:miter;stroke-opacity:1" />
        <path
           style="fill:none;stroke:#000000;stroke-width:1px;stroke-linecap:butt;stroke-linejoin:miter;stroke-opacity:1"
           d="M 22.428571,2.5714286 7,24"
           id="path3013"
           inkscape:connector-curvature="0" />
        <path
           inkscape:connector-curvature="0"
           id="path3015"
           d="m 16,2.8571429 6,0"
           style="fill:none;stroke:#000000;stroke-width:1px;stroke-linecap:butt;stroke-linejoin:miter;stroke-opacity:1" />
      </g>
    </g>
    <g
       transform="translate(20.142857,0.57142857)"
       id="g3027"
       style="fill:#ff6600">
      <g
         id="g3029"
         transform="translate(1.7142857,-0.57142857)"
         style="fill:#ff6600">
        <path
           inkscape:connector-curvature="0"
           id="path3031"
           d="M 16.428571,2.5714286 1,24"
           style="fill:#ff6600;stroke:#000000;stroke-width:1px;stroke-linecap:butt;stroke-linejoin:miter;stroke-opacity:1" />
        <path
           style="fill:#ff6600;stroke:#000000;stroke-width:1px;stroke-linecap:butt;stroke-linejoin:miter;stroke-opacity:1"
           d="M 22.428571,2.5714286 7,24"
           id="path3033"
           inkscape:connector-curvature="0" />
        <path
           inkscape:connector-curvature="0"
           id="path3035"
           d="m 16,2.8571429 6,0"
           style="fill:#ff6600;stroke:#000000;stroke-width:1px;stroke-linecap:butt;stroke-linejoin:miter;stroke-opacity:1" />
      </g>
      <g
         transform="matrix(1,0,0,-1,1.5714286,47)"
         id="g3037"
         style="fill:#ff6600">
        <path
           style="fill:#ff6600;stroke:#000000;stroke-width:1px;stroke-linecap:butt;stroke-linejoin:miter;stroke-opacity:1"
           d="M 16.428571,2.5714286 1,24"
           id="path3039"
           inkscape:connector-curvature="0" />
        <path
           inkscape:connector-curvature="0"
           id="path3041"
           d="M 22.428571,2.5714286 7,24"
           style="fill:#ff6600;stroke:#000000;stroke-width:1px;stroke-linecap:butt;stroke-linejoin:miter;stroke-opacity:1" />
        <path
           style="fill:#ff6600;stroke:#000000;stroke-width:1px;stroke-linecap:butt;stroke-linejoin:miter;stroke-opacity:1"
           d="m 16,2.8571429 6,0"
           id="path3043"
           inkscape:connector-curvature="0" />
      </g>
    </g>
    <path
       style="fill:#d45500"
       d="m 10.951528,34.003336 c -3.9926736,-5.545307 -7.2248023,-10.157807 -7.1825077,-10.25 0.042295,-0.09219 3.347932,-4.699765 7.3458607,-10.23905 l 7.268962,-10.0714289 2.302864,-0.039228 2.302864,-0.039228 -7.373435,10.238386 c -6.8204493,9.470536 -7.3594014,10.260949 -7.1862954,10.539229 0.1029274,0.165463 3.3212494,4.653208 7.1518264,9.972767 3.830577,5.319558 7.006264,9.739201 7.057083,9.821428 0.06285,0.101693 -0.63037,0.149503 -2.167709,0.149503 l -2.260105,0 -7.259408,-10.082378 z"
       id="path3086"
       inkscape:connector-curvature="0" />
    <path
       style="fill:#ff6600"
       d="m 30.954611,34.010247 c -3.98943,-5.541506 -7.219416,-10.154006 -7.177748,-10.25 0.04167,-0.09599 3.344722,-4.706676 7.340119,-10.245961 L 38.38134,3.4428571 40.626384,3.4035153 c 1.234775,-0.021638 2.245045,-0.00173 2.245045,0.044234 0,0.045967 -3.289183,4.6517977 -7.309296,10.2351793 -6.773693,9.407725 -7.295623,10.173891 -7.122714,10.455765 0.158584,0.258522 13.793045,19.257629 14.18657,19.768449 0.108732,0.141143 -0.339846,0.178571 -2.14015,0.178571 l -2.277719,0 -7.253509,-10.075467 0,0 z"
       id="path3856"
       inkscape:connector-curvature="0" />
  </g>
</svg>
