<?xml version="1.0" encoding="UTF-8" standalone="no"?>
<!-- Created with Inkscape (http://www.inkscape.org/) -->

<svg
   xmlns:dc="http://purl.org/dc/elements/1.1/"
   xmlns:cc="http://creativecommons.org/ns#"
   xmlns:rdf="http://www.w3.org/1999/02/22-rdf-syntax-ns#"
   xmlns:svg="http://www.w3.org/2000/svg"
   xmlns="http://www.w3.org/2000/svg"
   xmlns:sodipodi="http://sodipodi.sourceforge.net/DTD/sodipodi-0.dtd"
   xmlns:inkscape="http://www.inkscape.org/namespaces/inkscape"
   width="64px"
   height="64px"
   id="svg2984"
   version="1.1"
   inkscape:version="0.48.5 r10040"
   sodipodi:docname="Nový dokument 2">
  <defs
     id="defs2986" />
  <sodipodi:namedview
     id="base"
     pagecolor="#ffffff"
     bordercolor="#666666"
     borderopacity="1.0"
     inkscape:pageopacity="0.0"
     inkscape:pageshadow="2"
     inkscape:zoom="11"
     inkscape:cx="26.910311"
     inkscape:cy="44.947088"
     inkscape:current-layer="layer1"
     showgrid="true"
     inkscape:document-units="px"
     inkscape:grid-bbox="true"
     inkscape:window-width="1280"
     inkscape:window-height="774"
     inkscape:window-x="0"
     inkscape:window-y="-2"
     inkscape:window-maximized="1" />
  <metadata
     id="metadata2989">
    <rdf:RDF>
      <cc:Work
         rdf:about="">
        <dc:format>image/svg+xml</dc:format>
        <dc:type
           rdf:resource="http://purl.org/dc/dcmitype/StillImage" />
        <dc:title></dc:title>
      </cc:Work>
    </rdf:RDF>
  </metadata>
  <g
     id="layer1"
     inkscape:label="Layer 1"
     inkscape:groupmode="layer">
    <path
       style="fill:#aa0000;stroke:#000000"
       d="M 4.375 0.625 C 2.3100909 0.625 0.625 2.3100909 0.625 4.375 L 0.625 59.71875 C 0.625 61.783659 2.3100909 63.46875 4.375 63.46875 L 59.8125 63.46875 C 61.877409 63.46875 63.53125 61.783659 63.53125 59.71875 L 63.53125 4.375 C 63.53125 2.3100909 61.877409 0.625 59.8125 0.625 L 4.375 0.625 z M 20.46875 4.6875 L 24 7.84375 C 25.419265 9.1060365 28.123137 13.585368 28.1875 15.375 C 28.26651 17.164959 27.488237 18.855048 25.84375 20.4375 C 24.184197 22.0344 22.463594 22.75067 20.6875 22.59375 C 18.91856 22.444368 15.610974 19.598759 15.3125 19.53125 L 11.84375 18.75 L 5.8125 23.15625 L 3.65625 20.875 L 20.46875 4.6875 z M 20.78125 8.78125 L 14.4375 14.84375 L 17.1875 17.71875 C 18.201345 18.782744 19.273142 19.352687 20.375 19.40625 C 21.47682 19.459811 22.517488 19.006734 23.53125 18.03125 C 24.537458 17.062993 25.036724 16.014784 25.03125 14.90625 C 25.025729 13.797724 22.840092 14.589834 21.59375 11.09375 L 20.78125 8.78125 z M 36.375 15.46875 L 41.3125 20.65625 C 43.153244 22.588047 44.116203 24.401041 44.21875 26.125 C 44.321244 27.848966 43.559457 29.501727 41.9375 31.0625 C 40.878681 32.081336 39.766655 32.669786 38.59375 32.84375 C 37.427992 33.025253 36.262875 32.776875 35.09375 32.09375 C 35.395913 32.743208 35.477023 33.550678 35.375 34.53125 C 35.280132 35.519358 35.000329 36.715436 34.5 38.09375 L 32.09375 44.8125 L 29.78125 42.375 L 32.03125 36.0625 C 33.080061 31.329307 32.854119 33.163534 32.71875 32.28125 C 32.59054 31.406506 32.081596 30.499275 31.21875 29.59375 L 28.84375 27.125 L 21.75 33.9375 L 19.5625 31.65625 L 36.375 15.46875 z M 36.6875 19.5625 L 30.71875 25.3125 L 33.46875 28.1875 C 34.518547 29.289225 35.558519 29.86322 36.59375 29.9375 C 37.643642 30.012098 38.641275 29.602831 39.625 28.65625 C 40.608679 27.709672 41.074908 26.69911 41.03125 25.65625 C 41.002244 24.613718 40.407069 23.989417 39.4375 22.4375 L 38.15625 20.375 L 36.6875 19.5625 z M 45.15625 37.46875 C 48.099674 37.370319 50.703717 38.498003 52.96875 40.875 C 55.22654 43.244466 56.232595 45.900448 56 48.84375 C 55.774857 51.779825 54.345726 54.535808 51.6875 57.09375 C 49.036735 59.644449 46.248735 60.9565 43.3125 61.0625 C 40.383743 61.161247 37.789058 60.025699 35.53125 57.65625 C 33.266234 55.279236 32.250822 52.631118 32.46875 49.6875 C 32.693858 46.751424 34.12299 43.99544 36.78125 41.4375 C 39.43949 38.879573 42.22749 37.567522 45.15625 37.46875 z M 46.3125 40.4375 C 46.050849 40.433877 45.770782 40.443245 45.5 40.46875 C 43.340901 40.680349 41.187586 41.798853 39.0625 43.84375 C 36.944899 45.88143 35.741423 47.997777 35.4375 50.15625 C 35.140752 52.322265 35.79308 54.214861 37.375 55.875 C 38.9569 57.535123 40.816845 58.281627 42.96875 58.0625 C 45.127814 57.850899 47.257389 56.725169 49.375 54.6875 C 51.500076 52.642592 52.727292 50.533471 53.03125 48.375 C 53.342346 46.224074 52.706886 44.316386 51.125 42.65625 C 49.740808 41.20364 48.14406 40.46286 46.3125 40.4375 z "
       id="rect2992" />
    <g
       transform="matrix(0.68992301,0.72403762,-0.72050035,0.69331018,2,2)"
       style="font-size:32.01695633px;font-style:normal;font-weight:normal;line-height:125%;letter-spacing:0px;word-spacing:0px;fill:#000000;fill-opacity:1;stroke:none;font-family:Sans"
       id="text2994" />
  </g>
</svg>
